<?xml version="1.0" standalone="no"?><!DOCTYPE svg PUBLIC "-//W3C//DTD SVG 1.1//EN" "http://www.w3.org/Graphics/SVG/1.1/DTD/svg11.dtd"><svg t="1608012962528" class="icon" viewBox="0 0 1024 1024" version="1.1" xmlns="http://www.w3.org/2000/svg" p-id="3839" width="1024" height="1024" xmlns:xlink="http://www.w3.org/1999/xlink"><defs><style type="text/css"></style></defs><path d="M384 179.2h256c30.72 0 51.2-20.48 51.2-51.2s-20.48-51.2-51.2-51.2h-256c-30.72 0-51.2 20.48-51.2 51.2s20.48 51.2 51.2 51.2z m409.6-51.2h-51.2c0 56.32-46.08 102.4-102.4 102.4h-256c-56.32 0-102.4-46.08-102.4-102.4h-51.2c-56.32 0-102.4 46.08-102.4 102.4v614.4c0 56.32 46.08 102.4 102.4 102.4h563.2c56.32 0 102.4-46.08 102.4-102.4v-614.4c0-56.32-46.08-102.4-102.4-102.4z m-281.6 665.6c-128 0-230.4-102.4-230.4-230.4s102.4-230.4 230.4-230.4 230.4 102.4 230.4 230.4-102.4 230.4-230.4 230.4z" p-id="3840" fill="#1296db"></path><path d="M614.4 537.6h-76.8V460.8c0-15.36-10.24-25.6-25.6-25.6s-25.6 10.24-25.6 25.6v102.4c0 15.36 10.24 25.6 25.6 25.6h102.4c15.36 0 25.6-10.24 25.6-25.6s-10.24-25.6-25.6-25.6z" p-id="3841" fill="#1296db"></path></svg>