<?xml version="1.0" standalone="no"?><!DOCTYPE svg PUBLIC "-//W3C//DTD SVG 1.1//EN" "http://www.w3.org/Graphics/SVG/1.1/DTD/svg11.dtd"><svg t="1603623649914" class="icon" viewBox="0 0 1024 1024" version="1.1" xmlns="http://www.w3.org/2000/svg" p-id="1844" xmlns:xlink="http://www.w3.org/1999/xlink" width="2000" height="2000"><defs><style type="text/css"></style></defs><path d="M616.077 389.567H776.98a11.493 11.493 0 0 1 8.94 19.793l-535.07 608.497a11.493 11.493 0 0 1-20.431-10.855L358.12 530.677a11.493 11.493 0 0 0-11.493-14.686h-153.88a11.493 11.493 0 0 1-10.855-16.601L384.3 14.764A24.263 24.263 0 0 1 408.562 0.078h422.691a11.493 11.493 0 0 1 9.578 18.517L606.499 371.05a11.493 11.493 0 0 0 9.578 18.517z m-21.71 0" p-id="1845"></path></svg>