<?xml version="1.0" standalone="no"?><!DOCTYPE svg PUBLIC "-//W3C//DTD SVG 1.1//EN" "http://www.w3.org/Graphics/SVG/1.1/DTD/svg11.dtd"><svg t="1603623663792" class="icon" viewBox="0 0 1204 1024" version="1.1" xmlns="http://www.w3.org/2000/svg" p-id="2578" xmlns:xlink="http://www.w3.org/1999/xlink" width="2351.5625" height="2000"><defs><style type="text/css"></style></defs><path d="M1040.469489 585.41685H54.729898a82.81656 82.81656 0 0 1-54.128471-77.403713 68.262016 68.262016 0 0 1 49.49748-68.923585H902.141176a196.065349 196.065349 0 0 1-34.161079-47.09177c0-81.192706 90.214118-147.049012 177.180526-147.049011A168.399686 168.399686 0 0 1 1202.854901 409.860178a182.473088 182.473088 0 0 1-162.385412 175.436387zM401.152109 195.63172c0-88.710549 34.521936-195.283493 122.149916-195.283494a170.865539 170.865539 0 0 1 19.606535 341.12965H53.527043a73.915434 73.915434 0 0 1-52.925616-73.253863 70.427154 70.427154 0 0 1 49.49748-72.592293m661.02891 486.554807c2.044853 0 3.788993 0.841998 6.014275 0.962284 3.06728 0 6.014275-0.962284 9.081554-0.962284a194.321209 194.321209 0 0 1 176.278386 180.428235A176.278386 176.278386 0 0 1 726.043218 1023.316177a142.899162 142.899162 0 0 1-156.852279-141.034737 218.197879 218.197879 0 0 1 32.236511-53.707471H50.098907a63.691167 63.691167 0 0 1-49.49748-73.133578 78.185569 78.185569 0 0 1 67.299732-73.253864" p-id="2579"></path></svg>