<?xml version="1.0" standalone="no"?><!DOCTYPE svg PUBLIC "-//W3C//DTD SVG 1.1//EN" "http://www.w3.org/Graphics/SVG/1.1/DTD/svg11.dtd"><svg t="1606197208251" class="icon" viewBox="0 0 1024 1024" version="1.1" xmlns="http://www.w3.org/2000/svg" p-id="5405" xmlns:xlink="http://www.w3.org/1999/xlink" width="128" height="128"><defs><style type="text/css"></style></defs><path d="M877.035 63.868H592.18c-27.5 0-50 22.5-50 50v574.344h-0.051c-0.884 15.775-13.948 28.295-29.939 28.295-15.99 0-29.055-12.521-29.939-28.295h-0.051V113.868c0-27.5-22.5-50-50-50H150.004c-27.5 0-50 22.5-50 50v794.714c0 27.5 22.5 50 50 50H432.2c27.5 0 50-22.5 50-50v-55.693c0-16.568 13.427-30 29.99-30s29.99 13.432 29.99 30v55.693c0 27.5 22.5 50 50 50h284.856c27.5 0 50-22.5 50-50V113.868c-0.001-27.5-22.501-50-50.001-50zM425.565 443.97a15.871 15.871 0 0 1-5.671 11.066 24.8 24.8 0 0 1-15.262 5.446 21.03 21.03 0 0 1-15.262-5.446l-65.449-58.894a6.99 6.99 0 0 0-5.445-2.184 8.078 8.078 0 0 0-3.817 0.555 8.216 8.216 0 0 0-4.922 7.629v206c0 9.816-9.293 18-20.742 18l0.035 0.297c-11.445 0-20.707-8.219-20.707-18.004V397.349a8.544 8.544 0 0 0-4.926-7.629 8.576 8.576 0 0 0-8.738 1.629L183.73 455.04a24.84 24.84 0 0 1-15.258 5.446 22.412 22.412 0 0 1-15.262-6l-1.633-1.633a15.994 15.994 0 0 1-3.816-12 18.149 18.149 0 0 1 6-11.446l115.051-103.539a26.06 26.06 0 0 1 15.261-5.445h5.446a20.562 20.562 0 0 1 14.738 5.445l115.637 104.711 1.629 1.633a15.87 15.87 0 0 1 4.042 11.758z m450.696 61.715a18.13 18.13 0 0 1-6 11.449L755.179 620.767a23.27 23.27 0 0 1-14.739 5.445h-6a20.572 20.572 0 0 1-14.742-5.445l-114.98-104.254-1.633-1.633a15.863 15.863 0 0 1-4.039-11.758 15.859 15.859 0 0 1 5.672-11.066 24.785 24.785 0 0 1 15.262-5.445 21.906 21.906 0 0 1 15.261 5.445l65.481 59.023a7 7 0 0 0 5.445 2.184 6.88 6.88 0 0 0 3.262-0.555 8.245 8.245 0 0 0 4.922-7.629V338.622c0-9.812 9.261-18 20.707-18l-0.063 0.164c12 0 21.293 8.219 20.738 18v210.012a8.104 8.104 0 0 0 0.555 3.813 8.176 8.176 0 0 0 7.633 5.445 8.728 8.728 0 0 0 6-2.738l70.371-63.262a26.068 26.068 0 0 1 15.262-5.445 22.813 22.813 0 0 1 15.261 5.445l1.629 1.629a15.948 15.948 0 0 1 3.817 12z" p-id="5406"></path></svg>