<?xml version="1.0" standalone="no"?><!DOCTYPE svg PUBLIC "-//W3C//DTD SVG 1.1//EN" "http://www.w3.org/Graphics/SVG/1.1/DTD/svg11.dtd"><svg t="1609984567198" class="icon" viewBox="0 0 1024 1024" version="1.1" xmlns="http://www.w3.org/2000/svg" p-id="2565" width="1024" height="1024" xmlns:xlink="http://www.w3.org/1999/xlink"><defs><style type="text/css"></style></defs><path d="M946.76608 87.39584c-8.9152-12.06016-21.49504-18.87488-36.70016-19.92576-11.53536-1.0496-22.01984 2.62016-32.5056 7.3408a9097.27232 9097.27232 0 0 1-103.28448 47.70944c-30.41024 14.15552-61.34528 27.79008-91.7504 41.9456-17.8304 8.384-36.18048 16.2496-54.00448 24.64l-102.23488 47.18464c-31.45984 14.68032-63.44064 28.83456-94.89536 43.51488-32.50432 15.20512-65.01504 29.88544-98.04544 45.09056l-98.03904 45.08928-96.47104 44.56576c-11.53408 5.23904-23.06944 9.95968-34.08 15.7248-7.33952 3.66976-15.2 7.33952-21.49376 13.10976-26.21568 23.06944-22.54592 67.1104 7.86432 85.98528 24.64 15.2 48.23552 31.45472 72.34944 47.18464 40.896 26.73536 81.26592 53.47456 122.16064 79.69024 1.5744 1.0496 3.14496 2.62016 3.14496 3.66976 1.0496 12.58496 1.5744 25.1648 2.10048 38.27456 0.5248 13.62944 1.56928 27.78496 2.09408 41.4144 1.05088 15.72992 1.57568 31.45984 2.10048 46.66496 0.5248 14.68032 1.57056 28.83456 2.09536 43.51488 0.5248 17.30048 1.5744 35.12448 2.0992 53.47456 0.52096 5.77024 1.04576 12.58496 1.04576 19.39968 0 16.77952 5.24416 30.93376 17.82528 42.4704 15.72992 15.20512 43.52 18.35008 61.344 5.24032 18.87488-13.62944 37.22496-28.83456 55.57504-42.99008l55.05024-44.03968c19.39968-15.20512 38.79552-30.41024 57.6704-45.61536 4.72064-4.19456 8.9152-4.19456 14.15552-1.04448 31.98464 17.82528 63.96544 34.59968 96.46976 51.90016l96.46976 51.90528c13.62944 7.33952 27.26016 15.20512 41.41952 22.01984 13.10464 6.81984 25.6896 14.68032 41.94048 13.63456 19.92448-1.5744 37.74976-14.15552 45.09056-33.0304 4.72064-12.06016 4.19456-24.64512 5.24544-36.70016 1.04448-9.9648 1.57056-19.39968 2.62016-29.36064 1.57056-14.16064 3.14496-28.31488 4.19456-42.4704 1.04448-9.95968 1.57056-19.92064 2.09536-29.88544 1.5744-15.2064 3.14496-30.41024 4.19456-46.13504 1.0496-8.9152 1.5744-17.82528 2.09536-27.26528 1.5744-14.68032 3.15008-29.88544 4.19456-44.56448 1.0496-9.43488 1.5744-18.87488 2.10048-28.83456 1.57056-15.20512 3.14496-30.41024 4.19456-46.13504 1.04448-8.9152 1.57056-17.8304 2.09536-27.26528 1.5744-14.68032 3.14496-29.36064 4.19456-43.51488 1.0496-9.44 1.57056-19.39968 2.09536-28.83456 1.5744-14.15552 3.14496-28.31488 4.19456-42.4704 1.0496-9.95968 1.5744-19.92064 2.10048-29.88544 1.57056-15.20512 3.14496-30.40512 4.18944-46.13504 1.0496-9.44 1.5744-18.87488 2.10048-28.30976 1.57056-14.68032 3.14496-29.36064 4.19456-44.03968 1.04448-9.44 1.57056-18.87488 2.09536-28.31488 1.5744-15.20512 3.14496-30.41024 4.19456-45.61024 1.0496-9.44 1.5744-18.35008 2.09536-27.79008 1.5744-13.62944 3.15008-27.78496 4.19456-41.41952 1.0496-9.96096 0.5248-20.44544 2.62528-30.40512 5.23904-13.632 1.56928-27.78752-7.8656-40.36736zM844.5312 225.80736c-0.5248 5.76384-1.5744 11.00928-2.10048 16.7744l-4.72064 55.05536-3.14496 36.17408c-1.57056 17.82528-3.66976 35.65056-5.24032 53.47584-1.0496 10.48448-1.5744 20.44928-2.10048 30.93504-1.0496 13.62944-3.14496 27.78496-4.19456 41.41952-1.04448 9.95968-1.57056 19.39456-2.09536 29.36064-1.5744 14.15424-3.14496 28.83456-4.19456 42.9888-1.0496 9.43488-1.5744 19.39968-2.09536 28.83456-1.5744 14.68032-3.15008 29.36064-4.19456 43.51488-1.0496 9.44-1.5744 18.35008-2.10048 27.79008-1.57056 15.7248-3.14496 30.92992-4.19456 46.65984-1.04448 9.43488-1.57056 18.87488-2.09536 28.30976-1.5744 14.68032-3.14496 29.36064-4.19456 44.03968-1.0496 8.3904-1.57056 16.77952-2.09536 25.16992-1.0496 14.15552-2.10048 27.78496-3.66976 42.46528-4.72064-2.09536-8.9152-4.19456-13.10976-6.28992-13.10464-7.33952-26.73536-14.15552-39.84512-21.49504l-98.04032-52.95488c-22.54464-12.06016-44.56448-24.1216-67.1104-36.17536-15.72992-8.3904-40.36992-6.81472-54.52544 4.19456-21.49376 17.2992-44.04096 34.59968-66.05952 51.90016-17.30432 13.63456-34.6048 27.79008-52.43008 41.9456-0.5248-5.24032-1.0496-9.95968-1.5744-14.68032-1.04576-18.87616-1.57056-38.27456-2.09536-57.1456-0.5248-14.16064-1.5744-28.83968-2.09536-42.9952-0.5248-15.20512-1.0496-30.40512-2.0992-45.61024-0.5248-8.91648-1.57056-18.35008-3.14496-27.26528-2.62016-13.10464-10.48576-23.06944-21.49504-30.41024-14.68032-9.96096-29.36064-19.39456-44.04096-28.83456-30.40896-19.92064-61.344-39.84512-91.74912-59.7696-0.5248-0.51968-1.05088-1.04448-2.62528-2.09536 8.9152-4.19456 17.8304-8.91392 26.2144-12.58496 10.48576-4.71424 20.45056-8.91008 30.93504-13.62944 35.12576-16.2496 69.73056-32.5056 104.85504-48.23552 19.40096-8.91008 38.27584-17.824 57.67552-26.7392 34.07488-15.7248 68.15488-30.92992 101.71008-46.65984 34.6048-15.7312 69.20448-31.9808 103.81056-47.71072l53.47456-24.64c33.0304-15.20512 66.05952-30.41024 99.61472-45.61536 12.58496-5.76512 25.1648-11.53408 38.80064-17.824-1.5744 6.2912-2.0992 12.58752-2.61888 18.35264z m0 0" p-id="2566" fill="#2c2c2c"></path><path d="M781.09056 260.41088c-16.77952 0-28.83456 3.66976-38.80064 13.10464-7.33952 6.81472-14.15552 14.68032-20.97024 22.01984-18.87488 20.45056-37.74976 40.89472-56.09984 60.82048l-39.84512 42.99008-56.09856 60.81408-39.84512 42.9952c-14.15552 15.20512-28.30976 30.40512-41.9456 45.61024-12.57984 13.10976-25.1648 26.74048-37.21984 39.84512-4.19456 4.71936-8.9152 9.44-12.58496 14.68032-12.58496 17.8304-15.20512 36.704-7.33952 57.14944 10.48448 26.74048 37.22496 38.79552 61.86496 33.5552 14.68032-3.14496 25.1648-11.53536 34.6048-22.54464 13.62944-15.72992 28.30976-30.93504 42.46528-46.13504l81.78944-89.13024 41.41952-45.09056 41.94048-45.08928 41.41952-44.56576c13.62944-14.67904 26.74048-29.35936 40.36992-44.03968 13.10976-14.15424 18.35008-30.40512 15.72992-49.28-3.14496-26.2144-26.2144-48.23296-50.8544-47.70944z m0 0" p-id="2567" fill="#2c2c2c"></path></svg>