<?xml version="1.0" standalone="no"?><!DOCTYPE svg PUBLIC "-//W3C//DTD SVG 1.1//EN" "http://www.w3.org/Graphics/SVG/1.1/DTD/svg11.dtd"><svg t="1603623632862" class="icon" viewBox="0 0 1024 1024" version="1.1" xmlns="http://www.w3.org/2000/svg" p-id="1118" xmlns:xlink="http://www.w3.org/1999/xlink" width="2000" height="2000"><defs><style type="text/css"></style></defs><path d="M480.987077 139.620655c-42.162673 48.728991-77.58623 100.568343-116.638542 155.518056-29.202835 42.162673-58.40567 84.325346-81.042187 123.20486-54.949713 90.546068-84.152548 168.305096-84.152548 220.144448a314.492069 314.492069 0 0 0 311.036112 317.429632 314.664867 314.664867 0 0 0 311.036112-317.429632c0-51.839352-29.202835-129.59838-84.325346-223.427607a1127.678704 1127.678704 0 0 0-81.042187-123.20486c-35.596355-51.839352-74.475869-103.678704-116.638542-155.518056-9.849477-12.78704-19.353358-22.636517-29.030037-35.596355zM134.35461 638.488019c0-68.082349 32.485994-152.234897 94.002025-255.740803a1214.250422 1214.250422 0 0 1 84.325346-129.079987c38.879514-54.949713 77.58623-106.961863 119.748903-158.628417 16.242997-19.526156 32.313196-42.162673 51.839352-61.516031l3.283159-4.492744 25.919676-29.030037 25.746878 29.030037 3.283159 3.283159a48.210597 48.210597 0 0 1 9.849477 12.78704 337.992575 337.992575 0 0 1 38.879514 48.728991c41.989875 51.839352 80.869389 103.678704 119.748903 158.628417 32.313196 45.273034 58.40567 87.435707 84.152548 129.59838 61.516031 103.678704 94.002025 187.831252 94.002025 255.740804-6.566318 213.750928-171.761053 385.511981-378.945663 385.511981C299.722143 1024 134.35461 852.411745 134.35461 638.488019z" p-id="1119"></path><path d="M510.189912 907.361458A261.270334 261.270334 0 0 1 247.882791 645.054337c0-145.841377 131.671954-342.658117 199.927101-348.533244 62.38002-5.183935 39.743503 113.009787 145.150185 76.722241 97.457982-33.522781 179.709754 165.885926 179.709754 271.811003a265.417482 265.417482 0 0 1-262.479919 262.307121z" p-id="1120"></path></svg>