<?xml version="1.0" standalone="no"?><!DOCTYPE svg PUBLIC "-//W3C//DTD SVG 1.1//EN" "http://www.w3.org/Graphics/SVG/1.1/DTD/svg11.dtd"><svg t="1632988146435" class="icon" viewBox="0 0 1024 1024" version="1.1" xmlns="http://www.w3.org/2000/svg" p-id="4781" xmlns:xlink="http://www.w3.org/1999/xlink" width="64" height="64"><defs><style type="text/css"></style></defs><path d="M0 512a512 512 0 1 1 512 512A512.170667 512.170667 0 0 1 0 512z m20.48 0A491.52 491.52 0 1 0 512 20.48 491.656533 491.656533 0 0 0 20.48 512z m322.56 304.64a10.5472 10.5472 0 0 1 0-17.92 11.946667 11.946667 0 0 1 10.24 0 327.901867 327.901867 0 0 0 486.4-281.088 10.581333 10.581333 0 0 1 5.12-8.704 10.4448 10.4448 0 0 1 15.36 9.216 348.16 348.16 0 0 1-517.12 298.496z m-130.030933-4.096L102.4 621.056a32.238933 32.238933 0 0 1 11.758933-44.544L766.464 199.68a32.699733 32.699733 0 0 1 45.056 11.776l110.592 191.488a32.238933 32.238933 0 0 1-11.758933 44.544L257.536 824.32a31.829333 31.829333 0 0 1-16.4352 4.573867 32.426667 32.426667 0 0 1-28.1088-16.349867z m552.96-589.824L134.656 587.264a25.070933 25.070933 0 0 0-9.216 33.792l98.304 170.496a25.070933 25.070933 0 0 0 33.792 9.216l631.296-364.544a25.105067 25.105067 0 0 0 9.216-33.792l-98.304-170.496a25.4976 25.4976 0 0 0-21.725867-12.407467 24.439467 24.439467 0 0 0-12.066133 3.191467zM512 799.744l-20.48 10.752 4.096-22.528-16.384-15.36 22.528-3.584 10.24-19.968 10.24 19.968 22.528 3.584-16.384 15.36 4.096 22.528z m123.904-40.465067l-22.016-5.614933 17.902933-13.824-1.536-22.528 18.961067 12.288 21.504-8.704-6.656 22.016 14.848 17.408-23.04 1.024-12.288 18.944z m-117.248-61.952a8.226133 8.226133 0 0 1 4.608-1.536 187.733333 187.733333 0 0 0 80.896-24.558933 185.2416 185.2416 0 0 0 61.44-57.856 23.432533 23.432533 0 0 1 3.601067-3.072 10.001067 10.001067 0 0 1 12.8 14.848 204.919467 204.919467 0 0 1-157.696 91.136h-1.092267a10.24 10.24 0 0 1-4.5568-18.944z m224.256-33.28l-22.016 6.673067 8.704-21.504-12.288-18.961067 22.528 1.536 13.824-17.902933 5.614933 22.016 20.992 7.68-18.944 12.288-1.024 23.04zM163.84 505.856a348.3648 348.3648 0 0 1 517.12-298.496 10.530133 10.530133 0 0 1 0 17.92 11.946667 11.946667 0 0 1-10.24 0 327.901867 327.901867 0 0 0-486.4 281.088 10.530133 10.530133 0 0 1-5.12 8.686933 10.24 10.24 0 0 1-4.881067 1.2288 10.3936 10.3936 0 0 1-10.478933-10.427733z m178.176-107.008a204.987733 204.987733 0 0 1 157.696-91.136 10.1376 10.1376 0 0 1 5.632 18.961067 8.3456 8.3456 0 0 1-4.608 1.536 187.733333 187.733333 0 0 0-80.896 24.576A185.1904 185.1904 0 0 0 358.4 410.624a21.060267 21.060267 0 0 1-3.584 3.072 9.966933 9.966933 0 0 1-12.8-14.830933z m-62.464-2.065067l-22.016 6.144 8.704-20.974933-12.8-18.961067 22.528 1.024 14.336-17.92 5.632 22.033067 20.974933 7.68-18.944 12.288-1.024 23.04z m88.576-100.846933l-22.033067-5.632 17.92-14.336-1.024-22.528 18.961067 12.8 20.974933-8.686933-6.144 22.016 14.353067 17.408-23.04 1.024-12.288 18.944zM512 264.704l-20.48 10.24 4.096-22.016-16.384-15.889067 22.528-3.072 10.24-20.48 10.24 20.48 22.528 3.072-16.384 15.889067 4.096 22.016z" fill="#606060" p-id="4782"></path><path d="M410.197333 567.534933l-91.1872 52.650667 23.552 40.789333a8.379733 8.379733 0 0 0 12.9024 3.584l74.205867-42.837333a11.946667 11.946667 0 0 0 5.410133-6.656 66.56 66.56 0 0 0-10.786133-29.269333l16.315733-3.498667a90.453333 90.453333 0 0 1 11.861334 37.290667 25.258667 25.258667 0 0 1-11.1104 13.5168l-82.039467 47.36q-18.3296 10.581333-29.422933-8.635734l-44.458667-77.0048 14.199467-8.192 11.605333 20.104534 77.0048-44.458667-20.309333-35.1744-97.9968 56.576-7.765334-13.448533 112.1792-64.768z m91.7504-127.470933l12.270934-7.082667 52.650666 91.204267-12.270933 7.082667z m73.728 120.2176l-9.966933-10.8032q10.325333-4.9664 17.271467-8.977067 5.922133-3.413333 1.9968-10.222933l-67.072-116.1728 12.714666-7.338667 68.864 119.296q8.874667 15.36-5.3248 23.552z m-141.346133-21.265067l7.68-4.437333-30.6176-53.060267 33.399467-19.285333 30.634666 53.077333 8.567467-4.949333-30.634667-53.077333 33.399467-19.285334 30.634667 53.077334 6.8096-3.925334 7.424 12.8512-6.8096 3.925334 30.634666 53.060266a12.151467 12.151467 0 0 1-5.137066 18.722134l-7.68 4.437333-9.847467-9.8816a81.425067 81.425067 0 0 0 7.424-3.498667q3.703467-2.133333 0.887467-6.997333l-28.245334-48.930133-9.762133 5.632a259.601067 259.601067 0 0 1 28.962133 69.597866l-14.7968-3.089066a244.906667 244.906667 0 0 0-25.7536-59.630934l-0.085333-0.136533-8.567467 4.949333 30.293334 52.462934q7.082667 12.270933-5.7856 19.694933l-7.68 4.437333-10.001067-9.796266a81.3056 81.3056 0 0 0 7.594667-3.584q4.727467-2.730667 1.7408-7.918934l-27.989334-48.469333-9.898666 5.717333a201.1648 201.1648 0 0 1 25.5488 71.560534l-15.172267-3.072a173.960533 173.960533 0 0 0-22.203733-61.661867l-7.543467 4.352z m71.099733-41.045333l-23.722666-41.079467-9.762134 5.632 23.722667 41.079467z m-41.8304 24.149333l-23.722666-41.079466-9.762134 5.632 23.722667 41.079466z m91.306667-123.460266l44.629333-25.770667 6.4 11.093333q5.563733 23.978667 9.608534 48.042667a94.498133 94.498133 0 0 1 33.399466 27.818667 25.6 25.6 0 0 1 4.642134 17.237333A35.2768 35.2768 0 0 1 635.904 494.933333l-12.919467-11.451733a69.410133 69.410133 0 0 0 8.106667-3.703467 15.36 15.36 0 0 0 5.3248-5.444266 9.506133 9.506133 0 0 0-1.536-6.4 68.608 68.608 0 0 0-32.341333-25.668267 448.1536 448.1536 0 0 0-9.608534-48.042667l-16.708266 9.642667 68.352 118.391467-13.738667 7.936z m141.5168 91.511466l-10.9568-11.793066q7.816533-3.5328 13.277867-6.690134 3.703467-2.133333 0.802133-7.168l-21.504-37.239466-33.399467 19.285333-7.850666-13.602133 33.399466-19.285334-8.192-14.1824-18.3296 10.581334-5.376-9.3184a152.029867 152.029867 0 0 1-7.560533 16.5888l-14.813867-7.202134a140.578133 140.578133 0 0 0 17.390934-60.689066l13.585066-7.850667a120.081067 120.081067 0 0 0 60.757334 14.779733l-1.365334 16.7424a153.7536 153.7536 0 0 1-18.961066-1.450666l5.717333 9.898666-16.861867 9.728 8.192 14.1824 31.914667-18.432 7.850667 13.602134-31.914667 18.432 23.552 40.789333q8.277333 14.336-4.727467 21.845333z m-14.830933-119.534933a117.2992 117.2992 0 0 1-33.809067-11.810133 153.7024 153.7024 0 0 1-7.2704 35.5328z m32.256 46.626133a354.6624 354.6624 0 0 1 35.959466 20.992l-7.2192 14.813867a343.04 343.04 0 0 0-35.771733-22.698667z m-36.317867 29.627734a171.810133 171.810133 0 0 1-0.8704 45.226666l-16.452267-1.536a152.661333 152.661333 0 0 0 1.792-42.615466z" fill="#606060" p-id="4783"></path></svg>